<svg width="19" height="19" viewBox="0 0 19 19" fill="none" xmlns="http://www.w3.org/2000/svg">
<path d="M3.52308 14.7923C4.37308 14.1615 5.29903 13.6635 6.30095 13.2981C7.30287 12.9327 8.36921 12.75 9.49998 12.75C10.6307 12.75 11.6971 12.9327 12.699 13.2981C13.7009 13.6635 14.6269 14.1615 15.4769 14.7923C16.0987 14.109 16.5913 13.3179 16.9548 12.4192C17.3182 11.5205 17.5 10.5474 17.5 9.49998C17.5 7.28331 16.7208 5.39581 15.1625 3.83748C13.6041 2.27914 11.7166 1.49998 9.49998 1.49998C7.28331 1.49998 5.39581 2.27914 3.83748 3.83748C2.27914 5.39581 1.49998 7.28331 1.49998 9.49998C1.49998 10.5474 1.68171 11.5205 2.04518 12.4192C2.40864 13.3179 2.90128 14.109 3.52308 14.7923ZM9.49998 10.25C8.58716 10.25 7.81729 9.93649 7.19038 9.30958C6.56346 8.68266 6.25 7.91279 6.25 6.99998C6.25 6.08716 6.56346 5.31729 7.19038 4.69038C7.81729 4.06346 8.58716 3.75 9.49998 3.75C10.4128 3.75 11.1827 4.06346 11.8096 4.69038C12.4365 5.31729 12.75 6.08716 12.75 6.99998C12.75 7.91279 12.4365 8.68266 11.8096 9.30958C11.1827 9.93649 10.4128 10.25 9.49998 10.25ZM9.49998 19C8.18074 19 6.94325 18.7519 5.7875 18.2557C4.63173 17.7596 3.62628 17.0839 2.77115 16.2288C1.91603 15.3737 1.2404 14.3682 0.74425 13.2125C0.248083 12.0567 0 10.8192 0 9.49998C0 8.18074 0.248083 6.94325 0.74425 5.7875C1.2404 4.63173 1.91603 3.62628 2.77115 2.77115C3.62628 1.91603 4.63173 1.2404 5.7875 0.744251C6.94325 0.248084 8.18074 0 9.49998 0C10.8192 0 12.0567 0.248084 13.2125 0.744251C14.3682 1.2404 15.3737 1.91603 16.2288 2.77115C17.0839 3.62628 17.7596 4.63173 18.2557 5.7875C18.7519 6.94325 19 8.18074 19 9.49998C19 10.8192 18.7519 12.0567 18.2557 13.2125C17.7596 14.3682 17.0839 15.3737 16.2288 16.2288C15.3737 17.0839 14.3682 17.7596 13.2125 18.2557C12.0567 18.7519 10.8192 19 9.49998 19Z" fill="white"/>
</svg>
