<svg width="20" height="19" viewBox="0 0 20 19" fill="none" xmlns="http://www.w3.org/2000/svg">
<path d="M18.9523 8.32793C19.6765 8.32793 19.9789 7.39746 19.3906 6.96855L10.4398 0.457617C10.312 0.363965 10.1576 0.313477 9.99917 0.313477C9.84071 0.313477 9.68637 0.363965 9.55854 0.457617L0.607762 6.96855C0.0194812 7.39512 0.321825 8.32793 1.04839 8.32793H2.49917V17.0936H0.811669C0.708544 17.0936 0.624169 17.1779 0.624169 17.2811V18.4998C0.624169 18.6029 0.708544 18.6873 0.811669 18.6873H19.1867C19.2898 18.6873 19.3742 18.6029 19.3742 18.4998V17.2811C19.3742 17.1779 19.2898 17.0936 19.1867 17.0936H17.4992V8.32793H18.9523ZM9.99917 2.10996L16.3531 6.73184H3.64526L9.99917 2.10996ZM4.18667 8.32793H6.92886V17.0936H4.18667V8.32793ZM8.61636 8.32793H11.3585V17.0936H8.61636V8.32793ZM15.8117 17.0936H13.046V8.32793H15.8117V17.0936Z" fill="#6B7280"/>
</svg>
