<svg width="20" height="20" viewBox="0 0 20 20" fill="none" xmlns="http://www.w3.org/2000/svg">
<g clip-path="url(#clip0_1594_5180)">
<path d="M19.6581 2.89076C19.4455 2.30748 19.1077 1.77786 18.6685 1.33914C18.2292 0.900428 17.6992 0.563272 17.1156 0.351387C16.025 -0.000488319 15.0325 -0.000488281 13.0175 -0.000488281H6.96625C4.9675 -0.000488281 3.95812 -0.000488319 2.88437 0.331387C2.29956 0.544598 1.76872 0.883668 1.32939 1.32463C0.890046 1.76559 0.552933 2.29767 0.341875 2.88326C0 3.96701 0 4.96639 0 6.96514V13.0233C0 15.032 0 16.0245 0.331875 17.1083C0.544478 17.6915 0.882285 18.2212 1.32154 18.6599C1.7608 19.0986 2.29083 19.4358 2.87437 19.6476C3.95812 19.9895 4.9575 19.9895 6.95937 19.9895H13.0237C15.0325 19.9895 16.0319 19.9895 17.1087 19.6576C17.6944 19.4455 18.2263 19.1073 18.6667 18.6668C19.1071 18.2264 19.4454 17.6945 19.6575 17.1089C19.9994 16.0251 19.9994 15.0258 19.9994 13.0239V6.98201C19.9994 4.97326 19.9994 3.97389 19.6575 2.89014L19.6581 2.89076ZM14.5181 6.75139L13.74 7.52639C13.6641 7.59552 13.5654 7.63435 13.4628 7.6355C13.3601 7.63665 13.2606 7.60005 13.1831 7.53264C12.4319 6.9006 11.4824 6.55263 10.5006 6.54951C9.69 6.54951 8.8825 6.81639 8.8825 7.55889C8.8825 8.30764 9.74812 8.55826 10.7475 8.93264C12.4987 9.51889 13.9475 10.2508 13.9475 11.9664C13.9475 13.8351 12.4987 15.1176 10.1325 15.2576L9.91437 16.2601C9.89518 16.3512 9.84529 16.433 9.77305 16.4917C9.7008 16.5504 9.61059 16.5825 9.5175 16.5826H8.02312L7.94812 16.5764C7.84191 16.5517 7.74951 16.4866 7.69057 16.3948C7.63163 16.3031 7.61079 16.192 7.6325 16.0851L7.86687 15.027C6.96809 14.8014 6.14139 14.351 5.46437 13.7183V13.7083C5.42715 13.6711 5.39761 13.627 5.37746 13.5784C5.35731 13.5298 5.34693 13.4777 5.34693 13.4251C5.34693 13.3725 5.35731 13.3205 5.37746 13.2719C5.39761 13.2233 5.42715 13.1792 5.46437 13.142L6.2975 12.3345C6.37372 12.2641 6.4737 12.2249 6.5775 12.2249C6.6813 12.2249 6.78128 12.2641 6.8575 12.3345C7.62033 13.0549 8.63399 13.4495 9.68312 13.4345C10.7669 13.4345 11.49 12.9758 11.49 12.2495C11.49 11.5233 10.7575 11.3345 9.37437 10.817C7.90625 10.2926 6.51625 9.55076 6.51625 7.81576C6.51625 5.80076 8.18937 4.81764 10.175 4.72639L10.3831 3.70076C10.4021 3.60917 10.4526 3.52713 10.5258 3.4689C10.599 3.41066 10.6902 3.37992 10.7837 3.38201H12.265L12.3494 3.39201C12.4009 3.40279 12.4499 3.42364 12.4933 3.45336C12.5368 3.48309 12.574 3.52111 12.6027 3.56525C12.6315 3.60938 12.6512 3.65876 12.6608 3.71054C12.6704 3.76233 12.6697 3.8155 12.6587 3.86701L12.4344 5.00951C13.1896 5.25985 13.89 5.65208 14.4981 6.16514L14.5175 6.18451C14.6737 6.35076 14.6737 6.60139 14.5175 6.75076L14.5181 6.75139Z" fill="#60FF6D"/>
</g>
<defs>
<clipPath id="clip0_1594_5180">
<rect width="20" height="20" fill="white"/>
</clipPath>
</defs>
</svg>
