<svg width="24" height="28" viewBox="0 0 24 28" fill="none" xmlns="http://www.w3.org/2000/svg">
<path d="M10.5843 4.15242C10.5843 4.72366 10.1192 5.18475 9.54794 5.18475C8.9767 5.18475 8.51562 4.72366 8.51562 4.15242C8.51562 3.58118 8.9767 3.12012 9.54794 3.12012C10.1192 3.12012 10.5843 3.58118 10.5843 4.15242Z" fill="#FAE1C3"/>
<path d="M9.54671 5.79702C8.64006 5.79702 7.90234 5.05929 7.90234 4.15265C7.90234 3.2456 8.64006 2.5083 9.54671 2.5083C10.4558 2.5083 11.1952 3.24601 11.1952 4.15265C11.1952 5.0597 10.4558 5.79702 9.54671 5.79702ZM9.54671 3.73239C9.31495 3.73239 9.12644 3.92089 9.12644 4.15265C9.12644 4.38441 9.31495 4.57293 9.54671 4.57293C9.78051 4.57293 9.97106 4.38441 9.97106 4.15265C9.97106 3.92048 9.78051 3.73239 9.54671 3.73239Z" fill="#333333"/>
<path d="M17.8709 3.36904V6.53944H15.4023V2.58154H17.0793C17.5159 2.58154 17.8709 2.93245 17.8709 3.36904Z" fill="#E6CEFD"/>
<path d="M17.8716 7.15123H15.4031C15.0648 7.15123 14.791 6.87703 14.791 6.53918V2.58128C14.791 2.24343 15.0648 1.96924 15.4031 1.96924H17.0801C17.8541 1.96924 18.4837 2.59718 18.4837 3.36918V6.53958C18.4837 6.87702 18.2099 7.15123 17.8716 7.15123ZM16.0151 5.92714H17.2596V3.36878C17.2596 3.27208 17.1792 3.19293 17.0801 3.19293H16.0151V5.92714Z" fill="#333333"/>
<path d="M17.8719 14.2188V20.1189H15.5829C15.5217 20.1189 15.4605 20.1189 15.4033 20.1107C14.6566 20.0699 13.9875 19.7475 13.4938 19.2538C12.9633 18.7193 12.6328 17.9849 12.6328 17.1688C12.6328 15.602 13.8528 14.3167 15.4033 14.2269C15.4605 14.2187 15.5217 14.2188 15.5829 14.2188H17.8719Z" fill="#FAE1C3"/>
<path d="M17.8711 20.7307H15.582C15.5021 20.7307 15.4221 20.7291 15.3458 20.7201C14.4857 20.6675 13.6749 20.3015 13.06 19.6866C12.3884 19.0105 12.0195 18.1165 12.0195 17.1686C12.0195 15.2921 13.479 13.7363 15.3458 13.6171C15.4217 13.6082 15.5017 13.6069 15.5816 13.6069H17.8707C18.2089 13.6069 18.4827 13.8811 18.4827 14.219V20.1191C18.4831 20.4565 18.2093 20.7307 17.8711 20.7307ZM15.5351 14.8302C15.5184 14.8302 15.5025 14.8306 15.487 14.8327C15.4719 14.8347 15.4531 14.8367 15.438 14.8375C14.2078 14.9094 13.244 15.9331 13.244 17.1686C13.244 17.7913 13.4868 18.3789 13.9275 18.8228C14.3327 19.2276 14.8688 19.4687 15.436 19.4993C15.4543 19.5005 15.4731 19.5022 15.4915 19.505C15.5204 19.5091 15.5519 19.5071 15.5825 19.5071H17.2595V14.831H15.5825C15.5661 14.8306 15.5506 14.8302 15.5351 14.8302Z" fill="#333333"/>
<path d="M14.6121 0.847656H4.48476C4.04817 0.847656 3.69727 1.20264 3.69727 1.63924V6.53968H15.4037V1.63924C15.4037 1.20264 15.0487 0.847656 14.6121 0.847656ZM9.54843 5.18502C8.97718 5.18502 8.51611 4.72393 8.51611 4.15269C8.51611 3.58145 8.97718 3.12039 9.54843 3.12039C10.1197 3.12039 10.5848 3.58145 10.5848 4.15269C10.5848 4.72393 10.1197 5.18502 9.54843 5.18502Z" fill="#A855F7"/>
<path d="M15.4024 7.15147H3.69603C3.35777 7.15147 3.08398 6.87727 3.08398 6.53943V1.63898C3.08398 0.864535 3.71194 0.235352 4.48353 0.235352H14.6109C15.3849 0.235352 16.0145 0.864943 16.0145 1.63898V6.53943C16.0145 6.87727 15.7403 7.15147 15.4024 7.15147ZM4.30808 5.92738H14.7904V1.63898C14.7904 1.53983 14.71 1.45944 14.6109 1.45944H4.48353C4.38682 1.45944 4.30808 1.53983 4.30808 1.63898V5.92738ZM9.54719 5.79681C8.64055 5.79681 7.90283 5.05908 7.90283 4.15243C7.90283 3.24538 8.64055 2.50808 9.54719 2.50808C10.4563 2.50808 11.1956 3.24579 11.1956 4.15243C11.1956 5.05948 10.4563 5.79681 9.54719 5.79681ZM9.54719 3.73217C9.31543 3.73217 9.12692 3.92067 9.12692 4.15243C9.12692 4.38419 9.31543 4.57272 9.54719 4.57272C9.78099 4.57272 9.97155 4.38419 9.97155 4.15243C9.97155 3.92026 9.78099 3.73217 9.54719 3.73217Z" fill="#333333"/>
<path d="M10.5843 4.15242C10.5843 4.72366 10.1192 5.18475 9.54794 5.18475C8.9767 5.18475 8.51562 4.72366 8.51562 4.15242C8.51562 3.58118 8.9767 3.12012 9.54794 3.12012C10.1192 3.12012 10.5843 3.58118 10.5843 4.15242Z" fill="#FAE1C3"/>
<path d="M9.54866 5.79702C8.64202 5.79702 7.9043 5.05929 7.9043 4.15265C7.9043 3.2456 8.64202 2.5083 9.54866 2.5083C10.4578 2.5083 11.1971 3.24601 11.1971 4.15265C11.1971 5.0597 10.4578 5.79702 9.54866 5.79702ZM9.54866 3.73239C9.3169 3.73239 9.12839 3.92089 9.12839 4.15265C9.12839 4.38441 9.3169 4.57293 9.54866 4.57293C9.78246 4.57293 9.97302 4.38441 9.97302 4.15265C9.97302 3.92048 9.78246 3.73239 9.54866 3.73239Z" fill="#333333"/>
<path d="M15.4033 14.2266V20.1104C14.6566 20.0696 13.9875 19.7472 13.4938 19.2535C12.9633 18.719 12.6328 17.9845 12.6328 17.1685C12.6328 15.6016 13.8528 14.3163 15.4033 14.2266Z" fill="#FAE1C3"/>
<path d="M15.4025 20.7219C15.3915 20.7219 15.3805 20.7215 15.369 20.7211C14.5004 20.6737 13.6802 20.3061 13.06 19.6859C12.3884 19.0098 12.0195 18.1158 12.0195 17.168C12.0195 15.2849 13.4897 13.7242 15.3666 13.6152C15.5339 13.6058 15.7 13.6654 15.822 13.7809C15.9444 13.8964 16.0141 14.0575 16.0141 14.226V20.1098C16.0141 20.2779 15.9452 20.4387 15.8228 20.5542C15.7093 20.6623 15.5588 20.7219 15.4025 20.7219ZM14.7905 14.9687C13.8859 15.2926 13.244 16.1601 13.244 17.1684C13.244 17.791 13.4868 18.3786 13.9275 18.8225C14.1739 19.069 14.4693 19.255 14.7905 19.3693V14.9687Z" fill="#333333"/>
<path d="M10.5843 4.15242C10.5843 4.72366 10.1192 5.18475 9.54794 5.18475C8.9767 5.18475 8.51562 4.72366 8.51562 4.15242C8.51562 3.58118 8.9767 3.12012 9.54794 3.12012C10.1192 3.12012 10.5843 3.58118 10.5843 4.15242Z" fill="#F2F2F2"/>
<path d="M9.54822 5.69457C8.69788 5.69457 8.00586 5.00254 8.00586 4.15221C8.00586 3.30187 8.69788 2.60986 9.54822 2.60986C10.4006 2.60986 11.0947 3.30187 11.0947 4.15221C11.0947 5.00254 10.4006 5.69457 9.54822 5.69457ZM9.54822 3.62994C9.26015 3.62994 9.02594 3.86414 9.02594 4.15221C9.02594 4.44027 9.26015 4.6745 9.54822 4.6745C9.83833 4.6745 10.0746 4.44027 10.0746 4.15221C10.0746 3.86414 9.83833 3.62994 9.54822 3.62994Z" fill="#333333"/>
<path d="M12.6339 17.1687C12.6339 17.9848 12.9644 18.7192 13.4948 19.2538C13.9885 19.7475 14.6577 20.0698 15.4044 20.1106C15.4615 20.1188 15.5227 20.1188 15.5839 20.1188H21.9655V25.1172C21.9655 26.2433 21.0515 27.1532 19.9254 27.1532H2.64935C1.52319 27.1532 0.613281 26.2433 0.613281 25.1172V8.57562C0.613281 7.45353 1.52319 6.53955 2.64935 6.53955H19.9254C21.0515 6.53955 21.9655 7.45353 21.9655 8.57562V14.2187H15.5839C15.5227 14.2187 15.4615 14.2187 15.4044 14.2268C13.8539 14.3166 12.6339 15.6019 12.6339 17.1687Z" fill="#CD9EFA"/>
<path d="M19.9241 27.765H2.64812C1.18777 27.765 0 26.5772 0 25.1169V8.57536C0 7.11502 1.18818 5.92725 2.64812 5.92725H19.9241C21.3865 5.92725 22.5763 7.11502 22.5763 8.57536V14.2184C22.5763 14.5563 22.3026 14.8305 21.9643 14.8305H15.5827C15.5496 14.8305 15.5174 14.8284 15.4876 14.8325C15.4725 14.8346 15.4538 14.8366 15.4387 14.8374C14.2085 14.9092 13.2447 15.933 13.2447 17.1685C13.2447 17.7911 13.4875 18.3787 13.9281 18.8226C14.3333 19.2274 14.8695 19.4685 15.4366 19.4991C15.455 19.5004 15.4737 19.502 15.4921 19.5049C15.5211 19.5089 15.5525 19.5069 15.5831 19.5069H21.9647C22.303 19.5069 22.5767 19.7811 22.5767 20.119V25.1173C22.5763 26.5773 21.3865 27.765 19.9241 27.765ZM2.64812 7.15134C1.86306 7.15134 1.22409 7.7899 1.22409 8.57536V25.1169C1.22409 25.9024 1.86306 26.5409 2.64812 26.5409H19.9241C20.7116 26.5409 21.3522 25.9024 21.3522 25.1169V20.7306H15.5827C15.5027 20.7306 15.4227 20.7289 15.3464 20.72C14.4863 20.6677 13.6756 20.3013 13.0607 19.6864C12.389 19.0103 12.0202 18.1163 12.0202 17.1685C12.0202 15.2919 13.4797 13.7361 15.3464 13.617C15.4223 13.608 15.5023 13.6068 15.5823 13.6068H21.3518V8.57576C21.3518 7.7903 20.7112 7.15174 19.9237 7.15174L2.64812 7.15134Z" fill="#333333"/>
<path d="M21.9645 14.2188V20.1189H15.5829C15.5217 20.1189 15.4605 20.1189 15.4033 20.1107C14.6566 20.0699 13.9875 19.7475 13.4938 19.2538C12.9633 18.7193 12.6328 17.9849 12.6328 17.1688C12.6328 15.602 13.8528 14.3167 15.4033 14.2269C15.4605 14.2187 15.5217 14.2188 15.5829 14.2188H21.9645Z" fill="#FAE1C3"/>
<path d="M21.9636 20.7307H15.582C15.5021 20.7307 15.4221 20.7291 15.3458 20.7201C14.4857 20.6679 13.6749 20.3015 13.06 19.6866C12.3884 19.0105 12.0195 18.1165 12.0195 17.1686C12.0195 15.2921 13.479 13.7363 15.3458 13.6171C15.4217 13.6082 15.5017 13.6069 15.5816 13.6069H21.9632C22.3015 13.6069 22.5753 13.8811 22.5753 14.219V20.1191C22.5757 20.4565 22.3015 20.7307 21.9636 20.7307ZM15.5351 14.8302C15.5184 14.8302 15.5025 14.8306 15.487 14.8327C15.4719 14.8347 15.4531 14.8367 15.438 14.8375C14.2078 14.9094 13.244 15.9331 13.244 17.1686C13.244 17.7913 13.4868 18.3789 13.9275 18.8228C14.3327 19.2276 14.8688 19.4687 15.436 19.4993C15.4543 19.5005 15.4731 19.5022 15.4915 19.505C15.5204 19.5091 15.5519 19.5071 15.5825 19.5071H21.352V14.831H15.5825C15.5661 14.8306 15.5502 14.8302 15.5351 14.8302Z" fill="#333333"/>
<path d="M23.3885 14.6513V19.6863C23.3885 19.923 23.1967 20.1189 22.956 20.1189H15.5829C15.5217 20.1189 15.4605 20.1189 15.4033 20.1107C14.6566 20.0699 13.9875 19.7475 13.4938 19.2538C12.9633 18.7193 12.6328 17.9849 12.6328 17.1688C12.6328 15.602 13.8528 14.3167 15.4033 14.2269C15.4605 14.2187 15.5217 14.2188 15.5829 14.2188H22.956C23.1967 14.2188 23.3885 14.4146 23.3885 14.6513Z" fill="#F2F2F2"/>
<path d="M22.9552 20.7307H15.582C15.5021 20.7307 15.4221 20.7291 15.3458 20.7201C14.4857 20.6679 13.6749 20.3015 13.06 19.6866C12.3884 19.0105 12.0195 18.1165 12.0195 17.1686C12.0195 15.2921 13.479 13.7363 15.3458 13.6171C15.4217 13.6082 15.5017 13.6069 15.5816 13.6069H22.9548C23.5309 13.6069 23.9993 14.0754 23.9993 14.6515V19.6866C23.9997 20.2619 23.5313 20.7307 22.9552 20.7307ZM15.5351 14.8302C15.5184 14.8302 15.5025 14.8306 15.487 14.8327C15.4719 14.8347 15.4531 14.8367 15.438 14.8375C14.2078 14.9094 13.244 15.9331 13.244 17.1686C13.244 17.7913 13.4868 18.3789 13.9275 18.8228C14.3327 19.2276 14.8688 19.4687 15.436 19.4993C15.4543 19.5005 15.4731 19.5022 15.4915 19.505C15.5204 19.5091 15.5519 19.5071 15.5825 19.5071H22.776V14.831H15.5825C15.5661 14.8306 15.5502 14.8302 15.5351 14.8302Z" fill="#333333"/>
<path d="M16.1148 18.2683C16.737 18.2683 17.2414 17.7639 17.2414 17.1417C17.2414 16.5195 16.737 16.0151 16.1148 16.0151C15.4927 16.0151 14.9883 16.5195 14.9883 17.1417C14.9883 17.7639 15.4927 18.2683 16.1148 18.2683Z" fill="#E6CEFD"/>
<path d="M16.1151 18.7785C15.2126 18.7785 14.4785 18.0441 14.4785 17.1415C14.4785 16.2389 15.2126 15.5049 16.1151 15.5049C17.0177 15.5049 17.7517 16.2389 17.7517 17.1415C17.7517 18.0441 17.0177 18.7785 16.1151 18.7785ZM16.1151 16.525C15.7748 16.525 15.4986 16.8016 15.4986 17.1415C15.4986 17.4818 15.7752 17.7584 16.1151 17.7584C16.455 17.7584 16.7317 17.4818 16.7317 17.1415C16.7317 16.8016 16.455 16.525 16.1151 16.525Z" fill="#333333"/>
</svg>
