<svg width="20" height="20" viewBox="0 0 20 20" fill="none" xmlns="http://www.w3.org/2000/svg">
<path fill-rule="evenodd" clip-rule="evenodd" d="M10.8376 3.74984C10.8376 3.2896 10.4645 2.9165 10.0042 2.9165C9.54399 2.9165 9.1709 3.2896 9.1709 3.74984L9.1709 9.16654L8.67568 9.16652C8.52932 9.16642 8.34961 9.16629 8.20258 9.18468L8.19979 9.18503C8.09442 9.19817 7.61438 9.25803 7.38575 9.72936C7.15661 10.2017 7.40822 10.6185 7.46266 10.7087L7.46469 10.712C7.54153 10.8395 7.65332 10.9819 7.74528 11.0991L7.76506 11.1243C8.01058 11.4375 8.32889 11.841 8.64592 12.1668C8.80411 12.3294 8.98516 12.4971 9.17758 12.6295C9.34863 12.7471 9.64046 12.9165 9.99935 12.9165C10.3582 12.9165 10.6501 12.7471 10.8211 12.6295C11.0135 12.4971 11.1946 12.3294 11.3528 12.1668C11.6698 11.841 11.9881 11.4375 12.2336 11.1243L12.2534 11.0991C12.3454 10.9819 12.4572 10.8395 12.534 10.712L12.536 10.7087C12.5905 10.6185 12.8421 10.2017 12.613 9.72936C12.3843 9.25803 11.9043 9.19817 11.7989 9.18503L11.7961 9.18468C11.6491 9.16629 11.4694 9.16642 11.323 9.16652L10.8376 9.16654L10.8376 3.74984Z" fill="white"/>
<path fill-rule="evenodd" clip-rule="evenodd" d="M3.33333 12.9167C3.79357 12.9167 4.16667 13.2898 4.16667 13.75C4.16667 14.2491 4.1938 14.5922 4.24702 14.8344C4.29817 15.0672 4.36143 15.1509 4.39696 15.1864C4.43249 15.2219 4.51611 15.2852 4.74893 15.3363C4.9912 15.3896 5.33428 15.4167 5.83333 15.4167H14.1667C14.6657 15.4167 15.0088 15.3896 15.2511 15.3363C15.4839 15.2852 15.5675 15.2219 15.603 15.1864C15.6386 15.1509 15.7018 15.0672 15.753 14.8344C15.8062 14.5922 15.8333 14.2491 15.8333 13.75C15.8333 13.2898 16.2064 12.9167 16.6667 12.9167C17.1269 12.9167 17.5 13.2898 17.5 13.75C17.5 14.2851 17.4732 14.7716 17.3808 15.192C17.2864 15.6219 17.1125 16.034 16.7815 16.3649C16.4506 16.6958 16.0385 16.8698 15.6087 16.9642C15.1883 17.0565 14.7018 17.0834 14.1667 17.0834H5.83333C5.29822 17.0834 4.81172 17.0565 4.39133 16.9642C3.9615 16.8698 3.54938 16.6958 3.21845 16.3649C2.88753 16.034 2.7136 15.6219 2.61917 15.192C2.52682 14.7716 2.5 14.2851 2.5 13.75C2.5 13.2898 2.8731 12.9167 3.33333 12.9167Z" fill="white"/>
</svg>
