<svg width="16" height="16" viewBox="0 0 16 16" fill="none" xmlns="http://www.w3.org/2000/svg">
<path fill-rule="evenodd" clip-rule="evenodd" d="M8.83756 1.74935C8.83756 1.28911 8.46447 0.916016 8.00423 0.916016C7.54399 0.916016 7.1709 1.28911 7.1709 1.74935L7.1709 7.16605L6.67568 7.16603C6.52932 7.16593 6.34961 7.1658 6.20258 7.18419L6.19979 7.18454C6.09442 7.19768 5.61438 7.25754 5.38575 7.72887C5.15661 8.20122 5.40822 8.61801 5.46266 8.70818L5.46469 8.71154C5.54153 8.83906 5.65332 8.98145 5.74528 9.09859L5.76506 9.12379C6.01058 9.43698 6.32889 9.84049 6.64592 10.1663C6.80411 10.3289 6.98516 10.4966 7.17758 10.629C7.34863 10.7467 7.64046 10.916 7.99935 10.916C8.35824 10.916 8.65007 10.7467 8.82112 10.629C9.01354 10.4966 9.19459 10.3289 9.35278 10.1663C9.66981 9.84049 9.98812 9.43698 10.2336 9.12379L10.2534 9.09859C10.3454 8.98146 10.4572 8.83906 10.534 8.71154L10.536 8.70818C10.5905 8.61801 10.8421 8.20122 10.613 7.72887C10.3843 7.25754 9.90428 7.19768 9.79891 7.18454L9.79612 7.18419C9.64909 7.1658 9.46938 7.16593 9.32301 7.16603L8.83757 7.16605L8.83756 1.74935Z" fill="black"/>
<path fill-rule="evenodd" clip-rule="evenodd" d="M1.33333 10.916C1.79357 10.916 2.16667 11.2891 2.16667 11.7493C2.16667 12.2484 2.1938 12.5915 2.24702 12.8337C2.29817 13.0666 2.36143 13.1502 2.39696 13.1857C2.43249 13.2212 2.51611 13.2845 2.74893 13.3357C2.9912 13.3889 3.33428 13.416 3.83333 13.416H12.1667C12.6657 13.416 13.0088 13.3889 13.2511 13.3357C13.4839 13.2845 13.5675 13.2212 13.603 13.1857C13.6386 13.1502 13.7018 13.0666 13.753 12.8337C13.8062 12.5915 13.8333 12.2484 13.8333 11.7493C13.8333 11.2891 14.2064 10.916 14.6667 10.916C15.1269 10.916 15.5 11.2891 15.5 11.7493C15.5 12.2845 15.4732 12.771 15.3808 13.1914C15.2864 13.6212 15.1125 14.0333 14.7815 14.3642C14.4506 14.6952 14.0385 14.8691 13.6087 14.9635C13.1883 15.0559 12.7018 15.0827 12.1667 15.0827H3.83333C3.29822 15.0827 2.81172 15.0559 2.39133 14.9635C1.9615 14.8691 1.54938 14.6952 1.21845 14.3642C0.887525 14.0333 0.713599 13.6212 0.619174 13.1914C0.526822 12.771 0.5 12.2845 0.5 11.7493C0.5 11.2891 0.873096 10.916 1.33333 10.916Z" fill="black"/>
</svg>
