<svg width="186" height="64" viewBox="0 0 186 64" fill="none" xmlns="http://www.w3.org/2000/svg">
<path d="M170.912 47.4874C168.802 47.4874 166.719 47.2544 164.663 46.7884C162.635 46.2951 160.977 45.651 159.688 44.8562L162.361 38.0315C163.567 38.6071 165.006 39.1278 166.678 39.5938C168.377 40.0597 170.062 40.2927 171.734 40.2927C173.351 40.2927 174.461 40.1282 175.064 39.7993C175.667 39.443 176.01 39.0045 176.092 38.4837C176.147 38.0452 176.037 37.6752 175.763 37.3737C175.517 37.0448 174.982 36.8118 174.16 36.6748L169.103 35.7703C166.719 35.3318 164.855 34.3451 163.512 32.8102C162.196 31.2479 161.73 29.2608 162.114 26.8489C162.443 24.8755 163.21 23.2036 164.416 21.8332C165.65 20.4353 167.253 19.3664 169.226 18.6264C171.227 17.8864 173.53 17.5164 176.133 17.5164C177.942 17.5164 179.724 17.7356 181.478 18.1742C183.232 18.5853 184.616 19.1883 185.63 19.9831L182.835 26.6433C181.903 26.0952 180.793 25.6429 179.504 25.2866C178.244 24.9029 176.805 24.711 175.188 24.711C173.817 24.711 172.762 24.8755 172.022 25.2044C171.309 25.5059 170.898 25.9718 170.789 26.6022C170.734 26.9585 170.844 27.3285 171.118 27.7123C171.392 28.096 171.981 28.3701 172.885 28.5345L177.86 29.3979C180.382 29.8364 182.259 30.8231 183.492 32.358C184.753 33.8928 185.192 35.8525 184.808 38.237C184.534 40.046 183.808 41.6494 182.629 43.0472C181.478 44.445 179.916 45.5414 177.942 46.3362C175.969 47.1036 173.625 47.4874 170.912 47.4874Z" fill="white"/>
<path d="M56.1971 46.6374L59.6505 24.4498H51.2637L52.4148 17.6531H78.0687L76.9176 24.4498H68.5307L65.0773 46.6374H56.1971Z" fill="white"/>
<path d="M27.126 46.6374L31.7305 17.6531H53.2321L52.114 24.4461H39.0881L38.4729 28.5479H50.5187L49.4498 35.2903H37.404L36.664 39.8949H49.6965L48.6276 46.6374H27.126Z" fill="white"/>
<path d="M15.048 47.1312C11.2657 47.1312 8.22337 46.4734 5.9211 45.1578C3.64623 43.8147 2.07027 41.9647 1.19321 39.6076C0.343566 37.2505 0.15171 34.5507 0.617646 31.5084C1.11099 28.4387 2.19361 25.8486 3.8655 23.7382C5.53739 21.6003 7.67521 19.9695 10.279 18.8458C12.8827 17.722 15.8428 17.1602 19.1592 17.1602C21.2422 17.1602 23.0648 17.3657 24.6271 17.7768C26.2167 18.1606 27.5186 18.6676 28.5327 19.298L25.6549 26.0816C24.4763 25.5334 23.4074 25.1634 22.4481 24.9715C21.5163 24.7797 20.324 24.6837 18.8714 24.6837C16.1854 24.6837 14.1024 25.3141 12.6224 26.5749C11.1423 27.8357 10.2242 29.6172 9.86785 31.9195C9.48414 34.3863 9.75822 36.3186 10.6901 37.7164C11.6494 39.0868 13.472 39.772 16.158 39.772C17.0899 39.772 17.9806 39.7035 18.8303 39.5665C19.6799 39.4294 20.6118 39.2239 21.6259 38.9498L19.2003 41.9099L20.1459 36.0308H14.5957L15.5413 29.9461H28.286L25.9427 44.7877C24.9012 45.3085 23.75 45.747 22.4892 46.1033C21.2559 46.4322 19.9951 46.6789 18.7069 46.8434C17.4462 47.0352 16.2265 47.1312 15.048 47.1312Z" fill="white"/>
<path d="M141.592 46.6023L143.805 32.7022L144.748 37.4586L134.707 17.6951H144.584L149.543 28.4379H147.863L156.305 17.6951H166.469L150.117 37.8686L152.658 32.7022L150.445 46.6023H141.592Z" fill="white"/>
<path fill-rule="evenodd" clip-rule="evenodd" d="M112.226 9.19092L126.79 0L127.328 16.9279L124.976 11.3097L121.664 17.6535H121.677L106.589 46.6378H99.5591L96.5671 31.0336L88.5 46.6378H81.4287L75.5908 17.6535H84.4299L87.0049 34.043L95.5302 17.6535H101.82L104.444 33.9111L117.76 7.92371L112.226 9.19092Z" fill="white"/>
<path fill-rule="evenodd" clip-rule="evenodd" d="M117.215 46.6498L112.174 56.2514L118.474 54.8089L103.909 63.9999L103.372 47.072L105.723 52.6882L121.703 22.1266L123.899 17.9037L124.021 17.6655H132.463L141.713 46.6498H133.12L131.598 41.2641H120.042L117.848 45.4429L117.33 46.6498H117.215ZM123.56 34.5628H129.966L127.899 26.7103H127.694L126.105 29.7161L123.56 34.5628Z" fill="white"/>
</svg>
