<svg width="20" height="25" viewBox="0 0 20 25" fill="none" xmlns="http://www.w3.org/2000/svg">
<g clip-path="url(#clip0_3066_8786)">
<path d="M16.9655 2.3682C15.8769 1.10605 13.9091 0.564941 11.3916 0.564941H4.08539C3.83631 0.564902 3.59538 0.655276 3.40595 0.819806C3.21652 0.984337 3.09103 1.21222 3.05204 1.46248L0.00984765 21.089C-0.0506211 21.476 0.243988 21.8265 0.629613 21.8265H5.14024L6.27305 14.5175L6.2379 14.7464C6.3186 14.2298 6.75297 13.8487 7.26735 13.8487H9.41079C13.6216 13.8487 16.9187 12.1089 17.8818 7.07617C17.9104 6.92733 17.9352 6.78245 17.9566 6.64092C17.835 6.57543 17.835 6.57543 17.9566 6.64092C18.2434 4.78076 17.9546 3.51456 16.9655 2.3682Z" fill="#27346A"/>
<path d="M7.99899 5.97082C8.12227 5.911 8.25716 5.88004 8.39375 5.88023H14.1217C14.8 5.88023 15.4327 5.92513 16.0108 6.01978C16.1726 6.04603 16.3335 6.07736 16.4934 6.11371C16.7199 6.16458 16.9439 6.22683 17.1645 6.30023C17.4487 6.39678 17.7134 6.50923 17.9566 6.64092C18.2434 4.78004 17.9546 3.51456 16.9655 2.3682C15.8763 1.10605 13.9091 0.564941 11.3916 0.564941H4.08477C3.57032 0.564941 3.13266 0.945922 3.05204 1.46248L0.00984808 21.0883C-0.0506207 21.4759 0.243989 21.8259 0.628989 21.8259H5.14024L7.49047 6.66539C7.5136 6.51638 7.57196 6.37532 7.66054 6.25433C7.74912 6.13334 7.86527 6.03605 7.99899 5.97082Z" fill="#27346A"/>
<path d="M17.8822 7.07613C16.9191 12.1082 13.6221 13.8487 9.41123 13.8487H7.26717C6.75279 13.8487 6.31834 14.2297 6.23842 14.7464L4.82912 23.8342C4.77646 24.1729 5.03396 24.4798 5.37084 24.4798H9.17318C9.39099 24.4797 9.60163 24.4006 9.76723 24.2567C9.93282 24.1128 10.0425 23.9135 10.0765 23.6946L10.1136 23.4975L10.8302 18.8775L10.8764 18.6221C10.9104 18.4033 11.0201 18.204 11.1857 18.0601C11.3512 17.9161 11.5619 17.837 11.7797 17.8369H12.3487C16.0321 17.8369 18.9162 16.3148 19.759 11.9124C20.1108 10.0727 19.9288 8.53671 18.9982 7.45782C18.7159 7.13104 18.3654 6.86116 17.957 6.64087C17.9349 6.78312 17.9109 6.92728 17.8822 7.07613Z" fill="#2790C3"/>
<path d="M16.9503 6.2321C16.8001 6.1875 16.6485 6.14801 16.4958 6.11369C16.3358 6.07792 16.1749 6.04681 16.0132 6.02039C15.4345 5.92511 14.8023 5.88013 14.1234 5.88013H8.39609C8.25942 5.8799 8.12446 5.91111 8.00133 5.97144C7.86743 6.03643 7.75114 6.13366 7.66251 6.25469C7.57389 6.37572 7.51561 6.5169 7.49273 6.66601L6.27539 14.5175L6.24023 14.7464C6.32031 14.2297 6.75469 13.8487 7.26914 13.8487H9.4132C13.624 13.8487 16.921 12.1089 17.8841 7.07616C17.9128 6.92731 17.9369 6.78307 17.959 6.6409C17.7151 6.51004 17.4511 6.39668 17.1668 6.30084C17.0951 6.27665 17.0229 6.25373 16.9504 6.2321" fill="#1F264F"/>
</g>
<defs>
<clipPath id="clip0_3066_8786">
<rect width="20" height="24" fill="white" transform="translate(0 0.5)"/>
</clipPath>
</defs>
</svg>
