<svg width="24" height="19" viewBox="0 0 24 19" fill="none" xmlns="http://www.w3.org/2000/svg">
<g clip-path="url(#clip0_3026_9280)">
<path d="M4.36372 18.9056V17.6481C4.36372 17.1659 4.07553 16.8516 3.58156 16.8516C3.33463 16.8516 3.06706 16.9355 2.88181 17.208C2.73781 16.9774 2.53203 16.8516 2.22331 16.8516C2.01744 16.8516 1.81175 16.9145 1.64703 17.145V16.8935H1.21484V18.9056H1.64703V17.7948C1.64703 17.4385 1.83228 17.2708 2.12047 17.2708C2.40847 17.2708 2.55266 17.4594 2.55266 17.7948V18.9056H2.98484V17.7948C2.98484 17.4385 3.19053 17.2708 3.45809 17.2708C3.74628 17.2708 3.89028 17.4594 3.89028 17.7948V18.9056H4.36372ZM10.7641 16.8935H10.0645V16.2857H9.63228V16.8935H9.24125V17.2917H9.63219V18.214C9.63219 18.6752 9.81744 18.9476 10.3114 18.9476C10.4967 18.9476 10.7023 18.8847 10.8465 18.8009L10.723 18.4236C10.5995 18.5074 10.4555 18.5284 10.3526 18.5284C10.1468 18.5284 10.0645 18.4027 10.0645 18.193V17.2917H10.7641V16.8935ZM14.4275 16.8515C14.1806 16.8515 14.0159 16.9774 13.913 17.145V16.8935H13.4808V18.9056H13.913V17.7738C13.913 17.4385 14.057 17.2499 14.3246 17.2499C14.4069 17.2499 14.5098 17.2709 14.5921 17.2918L14.7156 16.8726C14.6333 16.8516 14.5098 16.8516 14.4275 16.8516M8.89137 17.0613C8.6855 16.9146 8.39741 16.8517 8.08869 16.8517C7.59481 16.8517 7.26556 17.1032 7.26556 17.5015C7.26556 17.8369 7.5125 18.0254 7.94469 18.0883L8.15047 18.1094C8.37687 18.1512 8.50034 18.2141 8.50034 18.3189C8.50034 18.4656 8.33572 18.5704 8.04753 18.5704C7.75934 18.5704 7.53303 18.4656 7.38894 18.3608L7.18316 18.6962C7.40956 18.8638 7.71828 18.9476 8.02691 18.9476C8.60319 18.9476 8.93253 18.6752 8.93253 18.2979C8.93253 17.9416 8.66497 17.7529 8.25331 17.6901L8.04753 17.6691C7.86228 17.6481 7.71828 17.6063 7.71828 17.4805C7.71828 17.3338 7.86228 17.25 8.08869 17.25C8.33572 17.25 8.58266 17.3547 8.70612 17.4176L8.89137 17.0613ZM20.3753 16.8517C20.1283 16.8517 19.9636 16.9775 19.8607 17.1451V16.8936H19.4285V18.9057H19.8607V17.7739C19.8607 17.4386 20.0048 17.25 20.2723 17.25C20.3547 17.25 20.4576 17.271 20.5399 17.2919L20.6634 16.8727C20.5811 16.8517 20.4576 16.8517 20.3753 16.8517ZM14.8597 17.8997C14.8597 18.5075 15.2712 18.9476 15.9093 18.9476C16.1974 18.9476 16.4032 18.8848 16.609 18.7172L16.4032 18.3608C16.2386 18.4866 16.0739 18.5494 15.8887 18.5494C15.5388 18.5494 15.2919 18.2979 15.2919 17.8997C15.2919 17.5225 15.5388 17.2709 15.8887 17.25C16.0739 17.25 16.2386 17.3128 16.4032 17.4386L16.609 17.0823C16.4032 16.9146 16.1974 16.8517 15.9093 16.8517C15.2712 16.8517 14.8597 17.2919 14.8597 17.8997ZM18.8523 17.8997V16.8936H18.4201V17.1451C18.276 16.9566 18.0703 16.8517 17.8027 16.8517C17.247 16.8517 16.8148 17.2919 16.8148 17.8997C16.8148 18.5075 17.247 18.9476 17.8027 18.9476C18.0908 18.9476 18.2967 18.8429 18.4201 18.6542V18.9057H18.8523V17.8997ZM17.2676 17.8997C17.2676 17.5434 17.494 17.25 17.8644 17.25C18.2143 17.25 18.4613 17.5225 18.4613 17.8997C18.4613 18.256 18.2143 18.5494 17.8644 18.5494C17.494 18.5284 17.2676 18.256 17.2676 17.8997ZM12.1019 16.8517C11.5257 16.8517 11.114 17.2709 11.114 17.8997C11.114 18.5285 11.5256 18.9476 12.1225 18.9476C12.4106 18.9476 12.6988 18.8638 12.9252 18.6752L12.7193 18.3608C12.5547 18.4866 12.3489 18.5704 12.1431 18.5704C11.8755 18.5704 11.608 18.4447 11.5462 18.0883H13.0075V17.9207C13.0281 17.2709 12.6577 16.8517 12.1019 16.8517ZM12.1018 17.229C12.3693 17.229 12.5547 17.3967 12.5957 17.7111H11.5667C11.6079 17.4386 11.7931 17.229 12.1018 17.229ZM22.8242 17.8997V16.0972H22.392V17.1451C22.2479 16.9566 22.0422 16.8517 21.7746 16.8517C21.2189 16.8517 20.7868 17.2919 20.7868 17.8997C20.7868 18.5075 21.2189 18.9476 21.7746 18.9476C22.0628 18.9476 22.2686 18.8429 22.392 18.6542V18.9057H22.8242V17.8997ZM21.2396 17.8997C21.2396 17.5434 21.4659 17.25 21.8364 17.25C22.1863 17.25 22.4332 17.5225 22.4332 17.8997C22.4332 18.256 22.1863 18.5494 21.8364 18.5494C21.4659 18.5284 21.2396 18.256 21.2396 17.8997ZM6.79203 17.8997V16.8936H6.35984V17.1451C6.21575 16.9566 6.00997 16.8517 5.74241 16.8517C5.18675 16.8517 4.75456 17.2919 4.75456 17.8997C4.75456 18.5075 5.18675 18.9476 5.74241 18.9476C6.03059 18.9476 6.23638 18.8429 6.35984 18.6542V18.9057H6.79203V17.8997ZM5.18675 17.8997C5.18675 17.5434 5.41316 17.25 5.78356 17.25C6.13344 17.25 6.38047 17.5225 6.38047 17.8997C6.38047 18.256 6.13344 18.5494 5.78356 18.5494C5.41316 18.5284 5.18675 18.256 5.18675 17.8997Z" fill="black"/>
<path d="M8.74609 1.61377H15.2289V13.4769H8.74609V1.61377Z" fill="#FF5F00"/>
<path d="M9.15834 7.54548C9.15834 5.13516 10.2697 2.99723 11.9778 1.61385C10.7225 0.607809 9.13781 0 7.40906 0C3.31341 0 0 3.37446 0 7.54548C0 11.7165 3.31341 15.091 7.40897 15.091C9.13772 15.091 10.7224 14.4832 11.9778 13.477C10.2697 12.1146 9.15834 9.95581 9.15834 7.54548Z" fill="#EB001B"/>
<path d="M23.9758 7.54548C23.9758 11.7164 20.6624 15.091 16.5669 15.091C14.8381 15.091 13.2535 14.4832 11.998 13.477C13.7268 12.0937 14.8176 9.95581 14.8176 7.54548C14.8176 5.13516 13.7062 2.99723 11.998 1.61385C13.2534 0.607809 14.8381 0 16.5669 0C20.6624 0 23.9758 3.39546 23.9758 7.54548Z" fill="#F79E1B"/>
</g>
<defs>
<clipPath id="clip0_3026_9280">
<rect width="24" height="19" fill="white"/>
</clipPath>
</defs>
</svg>
