<svg width="512" height="512" viewBox="0 0 512 512" fill="none" xmlns="http://www.w3.org/2000/svg">
<path d="M464.432 147.54C463.21 145.229 461.123 143.496 458.628 142.718C456.132 141.94 453.43 142.181 451.112 143.388C448.793 144.595 447.046 146.67 446.252 149.16C445.458 151.651 445.68 154.354 446.872 156.681C468.117 197.232 475.815 243.522 468.838 288.767C461.862 334.012 440.577 375.832 408.104 408.101C324.247 491.948 187.788 491.975 103.897 408.092C102.512 406.708 100.748 405.765 98.828 405.384C96.9078 405.002 94.9175 405.199 93.1091 405.949C91.3007 406.699 89.7553 407.968 88.6686 409.596C87.5818 411.225 87.0025 413.139 87.0039 415.097V471.997C87.0039 474.622 88.0466 477.139 89.9025 478.995C91.7585 480.851 94.2757 481.893 96.9004 481.893C99.5251 481.893 102.042 480.851 103.898 478.995C105.754 477.139 106.797 474.622 106.797 471.997V437.447C148.625 471.825 201.043 490.702 255.185 490.885C309.328 491.068 361.872 472.546 403.931 438.452C445.991 404.357 474.985 356.783 486.009 303.774C497.033 250.766 489.411 195.576 464.432 147.54Z" fill="black"/>
<path d="M103.896 103.902C187.779 20.0282 324.238 20.037 408.103 103.893C409.486 105.28 411.249 106.224 413.169 106.607C415.09 106.991 417.08 106.795 418.89 106.046C420.699 105.297 422.245 104.027 423.332 102.399C424.419 100.77 424.998 98.8554 424.996 96.8973V39.9973C424.996 37.3726 423.953 34.8554 422.097 32.9995C420.241 31.1435 417.724 30.1008 415.099 30.1008C412.474 30.1008 409.957 31.1435 408.101 32.9995C406.245 34.8554 405.203 37.3726 405.203 39.9973V74.5473C313.023 -1.35556 176.054 3.75094 89.9039 89.9012C54.4393 125.136 31.194 170.805 23.575 220.214C15.956 269.622 24.3642 320.172 47.567 364.454C48.7892 366.765 50.8757 368.498 53.3712 369.276C55.8667 370.054 58.5686 369.813 60.8872 368.606C63.2059 367.399 64.953 365.324 65.7473 362.834C66.5416 360.343 66.3186 357.64 65.127 355.313C43.8819 314.763 36.1837 268.475 43.1605 223.231C50.1373 177.988 71.4223 136.168 103.896 103.902Z" fill="black"/>
<path d="M126.4 254.556V363.996C126.421 371.15 129.273 378.005 134.332 383.064C139.391 388.123 146.246 390.975 153.4 390.996H358.599C365.753 390.975 372.609 388.124 377.668 383.065C382.727 378.006 385.578 371.15 385.599 363.996V254.556C385.578 247.401 382.727 240.545 377.668 235.486C372.609 230.427 365.753 227.576 358.599 227.556H153.4C146.246 227.577 139.391 230.428 134.332 235.487C129.273 240.546 126.422 247.401 126.4 254.556ZM327.999 288.13C332.182 288.13 336.27 289.37 339.748 291.694C343.225 294.018 345.936 297.32 347.536 301.184C349.137 305.048 349.556 309.3 348.74 313.402C347.924 317.504 345.91 321.272 342.952 324.23C339.995 327.187 336.227 329.201 332.125 330.017C328.023 330.833 323.771 330.414 319.907 328.813C316.043 327.213 312.74 324.502 310.417 321.025C308.093 317.547 306.853 313.459 306.853 309.277C306.858 303.67 309.088 298.294 313.053 294.33C317.017 290.365 322.393 288.136 327.999 288.13ZM255.999 288.13C260.182 288.13 264.27 289.37 267.748 291.694C271.225 294.018 273.936 297.32 275.536 301.184C277.137 305.048 277.556 309.3 276.74 313.402C275.924 317.504 273.91 321.272 270.952 324.23C267.995 327.187 264.227 329.201 260.125 330.017C256.023 330.833 251.771 330.414 247.907 328.813C244.043 327.213 240.74 324.502 238.417 321.025C236.093 317.547 234.853 313.459 234.853 309.277C234.858 303.67 237.088 298.294 241.053 294.33C245.017 290.365 250.393 288.136 255.999 288.13ZM183.999 288.13C188.182 288.13 192.27 289.37 195.748 291.694C199.225 294.018 201.936 297.32 203.536 301.184C205.137 305.048 205.556 309.3 204.74 313.402C203.924 317.504 201.91 321.272 198.952 324.23C195.995 327.187 192.227 329.201 188.125 330.017C184.023 330.833 179.771 330.414 175.907 328.813C172.043 327.213 168.74 324.502 166.417 321.025C164.093 317.547 162.853 313.459 162.853 309.277C162.858 303.67 165.088 298.294 169.053 294.33C173.017 290.365 178.393 288.136 183.999 288.13Z" fill="black"/>
<path d="M343.653 207.756V171.754C343.653 148.507 334.418 126.212 317.98 109.774C301.542 93.3355 279.247 84.1006 256 84.1006C232.753 84.1006 210.458 93.3355 194.02 109.774C177.582 126.212 168.347 148.507 168.347 171.754V207.756H188.14V171.754C188.14 153.756 195.29 136.496 208.016 123.769C220.742 111.043 238.003 103.893 256 103.893C273.998 103.893 291.259 111.043 303.985 123.769C316.711 136.496 323.861 153.756 323.861 171.754V207.756H343.653Z" fill="black"/>
</svg>
