<svg width="19" height="22" viewBox="0 0 19 22" fill="none" xmlns="http://www.w3.org/2000/svg">
<path d="M7.99899 5.97082C8.12227 5.911 8.25716 5.88004 8.39375 5.88023H14.1217C14.8 5.88023 15.4327 5.92513 16.0108 6.01978C16.1726 6.04603 16.3335 6.07736 16.4934 6.11371C16.7199 6.16458 16.9439 6.22683 17.1645 6.30023C17.4487 6.39678 17.7134 6.50923 17.9566 6.64092C18.2434 4.78004 17.9546 3.51456 16.9655 2.3682C15.8763 1.10605 13.9091 0.564941 11.3916 0.564941H4.08477C3.57032 0.564941 3.13266 0.945922 3.05204 1.46248L0.00984808 21.0883C-0.0506207 21.4759 0.243989 21.8259 0.628989 21.8259H5.14024L7.49047 6.66539C7.5136 6.51638 7.57196 6.37532 7.66054 6.25433C7.74912 6.13334 7.86527 6.03605 7.99899 5.97082Z" fill="#27346A"/>
</svg>
