<svg width="14" height="16" viewBox="0 0 14 16" fill="none" xmlns="http://www.w3.org/2000/svg">
<g clip-path="url(#clip0_1624_5190)">
<path d="M11.6441 1.36146C10.9185 0.534478 9.60698 0.179932 7.92912 0.179932H3.0595C2.89349 0.179906 2.73291 0.239121 2.60666 0.346924C2.4804 0.454727 2.39676 0.604043 2.37077 0.768014L0.343152 13.6277C0.30285 13.8812 0.499207 14.1109 0.756226 14.1109H3.76256L4.51758 9.32192L4.49415 9.47188C4.54793 9.13337 4.83745 8.88369 5.18028 8.88369H6.60888C9.41536 8.88369 11.6129 7.74377 12.2548 4.44621C12.2739 4.34868 12.2904 4.25376 12.3046 4.16102C12.2236 4.11811 12.2236 4.11811 12.3046 4.16102C12.4958 2.94221 12.3033 2.11257 11.6441 1.36146Z" fill="#27346A"/>
<path d="M5.66791 3.72196C5.75008 3.68277 5.83999 3.66248 5.93103 3.6626H9.74872C10.2008 3.6626 10.6225 3.69202 11.0078 3.75404C11.1156 3.77124 11.2229 3.79177 11.3294 3.81558C11.4804 3.84892 11.6297 3.8897 11.7767 3.93779C11.9661 4.00106 12.1425 4.07474 12.3047 4.16102C12.4958 2.94174 12.3033 2.11257 11.6441 1.36146C10.9181 0.534478 9.60698 0.179932 7.92912 0.179932H3.05909C2.7162 0.179932 2.42451 0.429557 2.37077 0.768014L0.343153 13.6272C0.30285 13.8812 0.499207 14.1105 0.75581 14.1105H3.76256L5.32899 4.17706C5.3444 4.07942 5.3833 3.987 5.44234 3.90772C5.50138 3.82845 5.57879 3.7647 5.66791 3.72196Z" fill="#27346A"/>
<path d="M12.2553 4.44632C11.6133 7.74341 9.41586 8.88381 6.60932 8.88381H5.18031C4.83748 8.88381 4.54791 9.13348 4.49465 9.47199L3.55535 15.4265C3.52025 15.6484 3.69188 15.8495 3.9164 15.8495H6.45067C6.59584 15.8495 6.73623 15.7976 6.8466 15.7033C6.95697 15.609 7.03007 15.4784 7.05275 15.3351L7.07744 15.2059L7.55508 12.1788L7.58585 12.0115C7.60854 11.8681 7.68163 11.7375 7.79199 11.6432C7.90234 11.5489 8.04273 11.4971 8.18789 11.497H8.56717C11.0221 11.497 12.9444 10.4997 13.5061 7.61516C13.7406 6.40974 13.6193 5.40332 12.999 4.69642C12.8109 4.4823 12.5773 4.30547 12.3051 4.16113C12.2904 4.25434 12.2744 4.34879 12.2553 4.44632Z" fill="#2790C3"/>
<path d="M11.6344 3.89322C11.5343 3.86399 11.4332 3.83812 11.3314 3.81563C11.2248 3.7922 11.1176 3.77181 11.0098 3.7545C10.624 3.69207 10.2027 3.6626 9.7502 3.6626H5.93297C5.84188 3.66245 5.75193 3.6829 5.66986 3.72243C5.58062 3.76501 5.50311 3.82872 5.44404 3.90802C5.38498 3.98732 5.34613 4.07982 5.33088 4.17752L4.51953 9.32196L4.49609 9.47193C4.54947 9.13342 4.83898 8.88374 5.18186 8.88374H6.61088C9.41736 8.88374 11.6148 7.74382 12.2568 4.44626C12.2759 4.34873 12.2919 4.25422 12.3066 4.16107C12.1441 4.07533 11.9681 4.00106 11.7786 3.93826C11.7308 3.92241 11.6827 3.90739 11.6344 3.89322" fill="#1F264F"/>
</g>
<defs>
<clipPath id="clip0_1624_5190">
<rect width="13.33" height="15.7252" fill="white" transform="translate(0.335938 0.137451)"/>
</clipPath>
</defs>
</svg>
