<svg width="16" height="20" viewBox="0 0 16 20" fill="none" xmlns="http://www.w3.org/2000/svg">
<path d="M13.2169 0.496094L15.9855 3.27348L15.9748 3.2837L13.2404 3.28577L13.2148 0.498156L13.2169 0.496094Z" fill="#F1F1F1"/>
<path d="M5.78469 4.87991C5.78469 5.40688 5.49031 5.65578 5.03848 5.65222C4.97666 5.65222 4.90761 5.65222 4.86523 5.64252V4.19961C4.90761 4.18991 4.9797 4.17969 5.09113 4.17969C5.51942 4.17973 5.78778 4.42198 5.78469 4.87991Z" fill="#F1F1F1"/>
<path d="M3.55248 4.49638C3.55248 4.72227 3.38889 4.85671 3.12419 4.85671C3.05209 4.85671 2.99945 4.85315 2.95703 4.84345V4.19226C2.99331 4.18255 3.0618 4.17285 3.163 4.17285C3.41191 4.17285 3.55248 4.29346 3.55248 4.49638Z" fill="#F1F1F1"/>
<path d="M1.88886 2.43555H10.4755V7.39333H1.88886H1.86791H0.0488281V2.43555H1.86786H1.88886Z" fill="#F1F1F1"/>
<path d="M9.17914 9.95294C9.18523 10.4676 8.85608 11.4719 8.85608 11.4719C8.74255 11.3523 8.51562 10.7124 8.51562 10.1205C8.51562 9.52867 8.70683 9.36719 8.85608 9.36719C9.0058 9.36719 9.17291 9.43877 9.17914 9.95294Z" fill="#DC1D00"/>
<path d="M12.7627 14.4416C12.7627 15.1213 11.5309 14.8443 10.7734 14.1231C10.7734 14.1231 12.7627 13.7623 12.7627 14.4416Z" fill="#DC1D00"/>
<path d="M5.61638 16.6799C5.00663 16.315 6.89621 15.191 7.23713 15.1553C7.23713 15.1553 6.25477 17.0616 5.61638 16.6799Z" fill="#DC1D00"/>
<path d="M9.14423 12.5898C9.49083 13.2354 10.1787 13.9949 10.1787 13.9949C10.1787 13.9949 9.91547 14.0246 9.30375 14.1743C8.69189 14.324 8.38477 14.4795 8.38477 14.4795C8.38477 14.4795 8.38477 14.4795 8.63573 13.9172C8.88717 13.355 9.14423 12.5898 9.14423 12.5898Z" fill="#DC1D00"/>
<path d="M15.9954 3.2833V19.5066H1.88867V7.39316H10.4753V2.43538H1.88867V0.493164H13.2144L13.2164 0.495695L13.2144 0.497711L13.24 3.28532L15.9744 3.28326L15.9852 3.27304L15.9954 3.2833Z" fill="#DC1D00"/>
<path d="M7.23692 15.1555C6.89605 15.1913 5.00642 16.3152 5.61617 16.6801C6.25456 17.0619 7.23692 15.1555 7.23692 15.1555ZM10.7748 14.123C11.5323 14.8442 12.7641 15.1213 12.7641 14.4415C12.7641 13.7622 10.7748 14.123 10.7748 14.123ZM10.1788 13.9953C10.1788 13.9953 9.49091 13.2358 9.14436 12.5902C9.14436 12.5902 8.8873 13.3553 8.63581 13.9175C8.38484 14.4798 8.38484 14.4798 8.38484 14.4798C8.38484 14.4798 8.69202 14.3244 9.30383 14.1746C9.91559 14.0249 10.1788 13.9953 10.1788 13.9953ZM8.85716 11.4719C8.85716 11.4719 9.18627 10.4676 9.18022 9.9529C9.17399 9.43873 9.00692 9.36715 8.85716 9.36715C8.70791 9.36715 8.5167 9.52863 8.5167 10.1205C8.5167 10.7124 8.74363 11.3524 8.85716 11.4719ZM9.27013 12.2493C9.60495 12.973 10.526 13.9053 10.526 13.9053C10.526 13.9053 10.8245 13.8276 12.0562 13.798C13.2885 13.7683 13.3422 14.4614 13.3478 14.5212C13.3539 14.5815 13.402 15.1315 12.4212 15.1672C11.4409 15.203 10.4238 14.1808 10.4238 14.1808C10.4238 14.1808 10.0056 14.2467 9.6591 14.3301C9.31255 14.4139 8.19988 14.719 8.19988 14.719C8.19988 14.719 7.87072 15.317 7.14134 16.2733C6.4115 17.2301 5.59423 17.1586 5.36113 16.8416C5.09023 16.4736 5.2993 16.1062 5.81347 15.6277C6.32764 15.1494 7.51395 14.7527 7.51395 14.7527C7.51395 14.7527 7.75316 14.3224 8.10378 13.501C8.45436 12.6797 8.71967 11.8547 8.71967 11.8547C8.71967 11.8547 8.37261 11.0666 8.30511 10.396C8.2295 9.64826 8.31331 9.14585 8.8873 9.13971C9.46133 9.13357 9.64067 9.56445 9.65858 10.3116C9.67644 11.0595 9.27013 12.2493 9.27013 12.2493Z" fill="white"/>
<path d="M7.95117 4.2334V3.81152H6.63867V6.01465H7.10742V5.12402H7.9043V4.74902H7.10742V4.2334H7.95117Z" fill="#A51600"/>
<path d="M5.93995 4.03154C5.72733 3.87104 5.44552 3.7959 5.02641 3.7959C4.77445 3.7959 4.5293 3.81226 4.3418 3.84188V6.00798C4.48242 6.02434 4.65994 6.04065 4.91855 6.04065C5.35045 6.04065 5.70938 5.94915 5.94141 5.75598C6.15403 5.57607 6.3105 5.2847 6.3105 4.86254C6.3105 4.47366 6.16945 4.20174 5.93995 4.03154ZM5.01033 5.65126C4.9485 5.65126 4.9043 5.65126 4.81055 5.64155V4.19865C4.9043 4.18895 4.95155 4.17873 5.06302 4.17873C5.49131 4.17873 5.75962 4.42098 5.75653 4.87895C5.75653 5.40591 5.46211 5.65482 5.01033 5.65126Z" fill="#A51600"/>
<path d="M3.80967 3.97271C3.66248 3.85463 3.42253 3.7959 3.1148 3.7959C2.81067 3.7959 2.56055 3.81582 2.41992 3.84188V6.01487H2.93555V5.22901C2.98242 5.23566 3.05034 5.23923 3.11583 5.23923C3.4102 5.23923 3.66717 5.16713 3.83742 5.00668C3.96825 4.88251 4.04278 4.69899 4.04278 4.48332C4.04278 4.26713 3.9502 4.08413 3.80967 3.97271ZM3.11269 4.85645C3.04064 4.85645 2.98242 4.85288 2.93555 4.84318V4.19199C2.98242 4.18229 3.05034 4.17259 3.1515 4.17259C3.40045 4.17259 3.54098 4.2932 3.54098 4.49612C3.54098 4.72201 3.37744 4.85645 3.11269 4.85645Z" fill="#A51600"/>
</svg>
