<svg width="22" height="22" viewBox="0 0 22 22" fill="none" xmlns="http://www.w3.org/2000/svg">
<path d="M21 11C21 16.5228 16.5228 21 11 21C5.47715 21 1 16.5228 1 11C1 5.47715 5.47715 1 11 1C16.5228 1 21 5.47715 21 11Z" stroke="#1AA24D" stroke-width="1.5"/>
<path d="M13 9.12779C13 9.542 13.3358 9.87779 13.75 9.87779C14.1642 9.87779 14.5 9.542 14.5 9.12779H13ZM8.75 12.8726C8.75 12.4584 8.41421 12.1226 8 12.1226C7.58579 12.1226 7.25 12.4584 7.25 12.8726H8.75ZM11.75 6C11.75 5.58579 11.4142 5.25 11 5.25C10.5858 5.25 10.25 5.58579 10.25 6L11.75 6ZM10.25 16C10.25 16.4142 10.5858 16.75 11 16.75C11.4142 16.75 11.75 16.4142 11.75 16H10.25ZM11 10.1062C10.0478 10.1062 9.54306 9.9543 9.29223 9.78638C9.10564 9.66146 9 9.4909 9 9.12779H7.5C7.5 9.87834 7.76936 10.572 8.45777 11.0328C9.08194 11.4507 9.95218 11.6062 11 11.6062V10.1062ZM9 9.12779C9 8.86732 9.14242 8.56819 9.49895 8.30676C9.85504 8.04566 10.3833 7.86133 11 7.86133V6.36133C10.0979 6.36133 9.25118 6.6284 8.61196 7.09711C7.97319 7.56549 7.5 8.2746 7.5 9.12779H9ZM11 7.86133C11.6167 7.86133 12.145 8.04566 12.501 8.30676C12.8576 8.56819 13 8.86732 13 9.12779H14.5C14.5 8.27459 14.0268 7.56549 13.388 7.09711C12.7488 6.6284 11.9021 6.36133 11 6.36133V7.86133ZM13.25 12.8726C13.25 13.3084 13.0711 13.5775 12.7369 13.777C12.3572 14.0037 11.7608 14.1391 11 14.1391V15.6391C11.896 15.6391 12.7997 15.4865 13.5057 15.065C14.2573 14.6163 14.75 13.8772 14.75 12.8726H13.25ZM11 14.1391C10.3002 14.1391 9.70037 13.9471 9.29707 13.676C8.88907 13.4018 8.75 13.1036 8.75 12.8726H7.25C7.25 13.7554 7.78251 14.4654 8.46029 14.921C9.14277 15.3797 10.0429 15.6391 11 15.6391V14.1391ZM11 11.6062C11.9582 11.6062 12.5279 11.7501 12.8421 11.9537C13.088 12.1131 13.25 12.354 13.25 12.8726H14.75C14.75 11.951 14.412 11.1837 13.6579 10.6949C12.9721 10.2504 12.0418 10.1062 11 10.1062V11.6062ZM11.75 7.11133L11.75 6L10.25 6L10.25 7.11133L11.75 7.11133ZM10.25 14.8891V16H11.75V14.8891H10.25Z" fill="#1AA24D"/>
</svg>
