<svg width="19" height="18" viewBox="0 0 19 18" fill="none" xmlns="http://www.w3.org/2000/svg">
<path d="M12.832 5.99999V3.37548C12.832 2.75168 12.832 2.43978 12.7006 2.2481C12.5858 2.08063 12.408 1.96687 12.2078 1.9328C11.9787 1.89382 11.6955 2.02452 11.1292 2.28593L4.47629 5.35649C3.97116 5.58963 3.71859 5.70619 3.53361 5.88698C3.37007 6.04681 3.24524 6.24191 3.16866 6.45737C3.08203 6.70108 3.08203 6.97925 3.08203 7.53559V11.25M13.207 10.875H13.2145M3.08203 8.39999L3.08203 13.35C3.08203 14.1901 3.08203 14.6101 3.24552 14.931C3.38933 15.2132 3.6188 15.4427 3.90105 15.5865C4.22191 15.75 4.64195 15.75 5.48203 15.75H14.182C15.0221 15.75 15.4421 15.75 15.763 15.5865C16.0453 15.4427 16.2747 15.2132 16.4185 14.931C16.582 14.6101 16.582 14.1901 16.582 13.35V8.39999C16.582 7.55992 16.582 7.13988 16.4185 6.81901C16.2747 6.53677 16.0453 6.30729 15.763 6.16348C15.4422 5.99999 15.0221 5.99999 14.182 5.99999L5.48203 5.99999C4.64195 5.99999 4.22191 5.99999 3.90105 6.16348C3.6188 6.30729 3.38933 6.53676 3.24552 6.81901C3.08203 7.13987 3.08203 7.55991 3.08203 8.39999ZM13.582 10.875C13.582 11.0821 13.4141 11.25 13.207 11.25C12.9999 11.25 12.832 11.0821 12.832 10.875C12.832 10.6679 12.9999 10.5 13.207 10.5C13.4141 10.5 13.582 10.6679 13.582 10.875Z" stroke="black" stroke-opacity="0.6" stroke-width="1.5" stroke-linecap="round" stroke-linejoin="round"/>
</svg>
