<svg width="56" height="56" viewBox="0 0 56 56" fill="none" xmlns="http://www.w3.org/2000/svg">
<rect width="56" height="56" rx="8" fill="black" fill-opacity="0.1"/>
<path d="M33.3333 22.6667V18.0009C33.3333 16.8919 33.3333 16.3374 33.0997 15.9966C32.8956 15.6989 32.5795 15.4967 32.2237 15.4361C31.8164 15.3668 31.3129 15.5992 30.306 16.0639L18.4787 21.5227C17.5807 21.9371 17.1317 22.1444 16.8028 22.4658C16.5121 22.7499 16.2902 23.0967 16.154 23.4798C16 23.9131 16 24.4076 16 25.3966V32M34 31.3333H34.0133M16 26.9333L16 35.7333C16 37.2268 16 37.9736 16.2906 38.544C16.5463 39.0458 16.9543 39.4537 17.456 39.7094C18.0265 40 18.7732 40 20.2667 40H35.7333C37.2268 40 37.9735 40 38.544 39.7094C39.0457 39.4537 39.4537 39.0458 39.7094 38.544C40 37.9736 40 37.2268 40 35.7333V26.9333C40 25.4399 40 24.6931 39.7094 24.1227C39.4537 23.6209 39.0457 23.213 38.544 22.9573C37.9735 22.6667 37.2268 22.6667 35.7333 22.6667L20.2667 22.6667C18.7732 22.6667 18.0265 22.6667 17.456 22.9573C16.9543 23.213 16.5463 23.6209 16.2906 24.1227C16 24.6931 16 25.4399 16 26.9333ZM34.6667 31.3333C34.6667 31.7015 34.3682 32 34 32C33.6318 32 33.3333 31.7015 33.3333 31.3333C33.3333 30.9652 33.6318 30.6667 34 30.6667C34.3682 30.6667 34.6667 30.9652 34.6667 31.3333Z" stroke="black" stroke-width="2" stroke-linecap="round" stroke-linejoin="round"/>
</svg>
