<svg width="19" height="18" viewBox="0 0 19 18" fill="none" xmlns="http://www.w3.org/2000/svg">
<path d="M12.5 5.99999V3.37548C12.5 2.75168 12.5 2.43978 12.3686 2.2481C12.2538 2.08063 12.076 1.96687 11.8758 1.9328C11.6467 1.89382 11.3635 2.02452 10.7971 2.28593L4.14426 5.35649C3.63913 5.58963 3.38656 5.70619 3.20158 5.88698C3.03804 6.04681 2.91321 6.24191 2.83663 6.45737C2.75 6.70108 2.75 6.97925 2.75 7.53559V11.25M12.875 10.875H12.8825M2.75 8.39999L2.75 13.35C2.75 14.1901 2.75 14.6101 2.91349 14.931C3.0573 15.2132 3.28677 15.4427 3.56901 15.5865C3.88988 15.75 4.30992 15.75 5.15 15.75H13.85C14.6901 15.75 15.1101 15.75 15.431 15.5865C15.7132 15.4427 15.9427 15.2132 16.0865 14.931C16.25 14.6101 16.25 14.1901 16.25 13.35V8.39999C16.25 7.55992 16.25 7.13988 16.0865 6.81901C15.9427 6.53677 15.7132 6.30729 15.431 6.16348C15.1101 5.99999 14.6901 5.99999 13.85 5.99999L5.15 5.99999C4.30992 5.99999 3.88988 5.99999 3.56901 6.16348C3.28677 6.30729 3.0573 6.53676 2.91349 6.81901C2.75 7.13987 2.75 7.55991 2.75 8.39999ZM13.25 10.875C13.25 11.0821 13.0821 11.25 12.875 11.25C12.6679 11.25 12.5 11.0821 12.5 10.875C12.5 10.6679 12.6679 10.5 12.875 10.5C13.0821 10.5 13.25 10.6679 13.25 10.875Z" stroke="white" stroke-width="1.5" stroke-linecap="round" stroke-linejoin="round"/>
</svg>
