<svg width="116" height="40" viewBox="0 0 116 40" fill="none" xmlns="http://www.w3.org/2000/svg">
<g id="Logo White">
<path id="Vector" d="M106.788 29.6797C105.469 29.6797 104.167 29.534 102.883 29.2428C101.615 28.9345 100.579 28.5319 99.7734 28.0352L101.444 23.7697C102.197 24.1295 103.097 24.4549 104.142 24.7462C105.204 25.0374 106.257 25.183 107.302 25.183C108.313 25.183 109.007 25.0802 109.383 24.8746C109.76 24.6519 109.974 24.3779 110.026 24.0524C110.06 23.7783 109.992 23.547 109.82 23.3586C109.666 23.153 109.332 23.0074 108.818 22.9218L105.658 22.3565C104.167 22.0824 103.002 21.4657 102.163 20.5064C101.341 19.53 101.05 18.2881 101.289 16.7806C101.495 15.5472 101.975 14.5023 102.728 13.6458C103.499 12.7721 104.501 12.104 105.735 11.6415C106.985 11.179 108.424 10.9478 110.051 10.9478C111.182 10.9478 112.296 11.0848 113.392 11.3589C114.488 11.6158 115.353 11.9927 115.987 12.4895L114.24 16.6521C113.657 16.3095 112.964 16.0269 112.158 15.8042C111.37 15.5643 110.471 15.4444 109.46 15.4444C108.604 15.4444 107.944 15.5472 107.482 15.7528C107.037 15.9412 106.78 16.2324 106.711 16.6264C106.677 16.8491 106.745 17.0804 106.917 17.3202C107.088 17.56 107.456 17.7313 108.022 17.8341L111.131 18.3737C112.707 18.6478 113.88 19.2645 114.651 20.2238C115.439 21.1831 115.713 22.4079 115.473 23.8982C115.302 25.0288 114.848 26.0309 114.111 26.9046C113.392 27.7782 112.415 28.4634 111.182 28.9602C109.949 29.4398 108.484 29.6797 106.788 29.6797Z" fill="white"/>
<path id="Vector_2" d="M35.0912 29.1484L37.2496 15.2811H32.0078L32.7273 11.0332H48.761L48.0415 15.2811H42.7997L40.6414 29.1484H35.0912Z" fill="white"/>
<path id="Vector_3" d="M16.9219 29.1484L19.7997 11.0332H33.2382L32.5394 15.2788H24.3982L24.0137 17.8425H31.5424L30.8743 22.0565H23.3456L22.8831 24.9344H31.0285L30.3604 29.1484H16.9219Z" fill="white"/>
<path id="Vector_4" d="M9.37289 29.457C7.00895 29.457 5.10751 29.0459 3.66859 28.2236C2.24679 27.3842 1.26182 26.228 0.713655 24.7548C0.182624 23.2816 0.0627138 21.5942 0.353924 19.6928C0.662265 17.7742 1.3389 16.1554 2.38383 14.8364C3.42877 13.5002 4.76491 12.4809 6.39226 11.7786C8.01962 11.0763 9.86966 10.7251 11.9424 10.7251C13.2443 10.7251 14.3834 10.8536 15.3598 11.1105C16.3534 11.3504 17.1671 11.6673 17.8009 12.0613L16.0022 16.301C15.2656 15.9584 14.5976 15.7271 13.998 15.6072C13.4156 15.4873 12.6704 15.4273 11.7625 15.4273C10.0838 15.4273 8.7819 15.8213 7.85688 16.6093C6.93186 17.3973 6.358 18.5108 6.13531 19.9497C5.89549 21.4914 6.06679 22.6991 6.64921 23.5728C7.24877 24.4293 8.38791 24.8575 10.0667 24.8575C10.6491 24.8575 11.2058 24.8147 11.7368 24.7291C12.2679 24.6434 12.8503 24.5149 13.4841 24.3436L11.9681 26.1937L12.5591 22.5193H9.09025L9.68123 18.7163H17.6467L16.1821 27.9924C15.5311 28.3178 14.8117 28.5919 14.0237 28.8146C13.2528 29.0202 12.4649 29.1744 11.6598 29.2771C10.8718 29.397 10.1095 29.457 9.37289 29.457Z" fill="white"/>
<path id="Y" d="M88.4634 29.1264L89.8466 20.4388L90.4357 23.4115L84.1602 11.0593H90.3332L93.4326 17.7736H92.3824L97.659 11.0593H104.011L93.7912 23.6678L95.3793 20.4388L93.9961 29.1264H88.4634Z" fill="white"/>
<path id="Union" fill-rule="evenodd" clip-rule="evenodd" d="M70.1114 5.74434L79.2144 0L79.5502 10.5799L78.0795 7.06672L76.0086 11.0335H76.0171L66.587 29.1487H62.1931L60.3231 19.3961L55.2811 29.1487H50.8616L47.2129 11.0335H52.7373L54.3467 21.277L59.675 11.0335H63.6063L65.2459 21.1945L73.5687 4.95277L70.1114 5.74434Z" fill="white"/>
<path id="Union_2" fill-rule="evenodd" clip-rule="evenodd" d="M73.2257 29.1562L70.0752 35.1573L74.013 34.2557L64.91 40.0001L64.5742 29.4201L66.0435 32.9301L76.0307 13.8292L77.3025 11.3834L77.4785 11.041H82.7545L88.5359 29.1562H83.1657L82.214 25.7901H74.9929L73.6154 28.4139L73.2963 29.1562H73.2257ZM77.1917 21.6018H81.1939L79.9024 16.694H79.7739L78.9492 18.2542L77.1917 21.6018Z" fill="white"/>
</g>
</svg>
